<svg version="1.1" xmlns="http://www.w3.org/2000/svg" xmlns:xlink="http://www.w3.org/1999/xlink" width="46.875" height="44.99999" viewBox="0,0,46.875,44.99999"><g transform="translate(-216.5625,-157.31251)"><g data-paper-data="{&quot;isPaintingLayer&quot;:true}" fill-rule="nonzero" stroke-linejoin="miter" stroke-miterlimit="10" stroke-dasharray="" stroke-dashoffset="0" style="mix-blend-mode: normal"><path d="M243.28263,188.14098l-1.32431,-5.46689l4.00905,-0.97116l1.32431,5.46689z" fill="#000000" stroke="#ffffff" stroke-width="1.5" stroke-linecap="butt"/><path d="M238.01991,188.82773l0.08567,-5.62435l4.12452,0.06282l-0.08567,5.62435z" fill="#000000" stroke="#ffffff" stroke-width="1.5" stroke-linecap="butt"/><path d="M231.35942,186.29919l2.2508,-5.15505l3.78037,1.65058l-2.2508,5.15505z" fill="#000000" stroke="#ffffff" stroke-width="1.5" stroke-linecap="butt"/><path d="M248.9375,177.85946c0,3.72792 -4.00145,6.75 -8.9375,6.75c-4.93605,0 -8.9375,-3.02208 -8.9375,-6.75c0,-3.72792 4.00145,-6.75 8.9375,-6.75c4.93605,0 8.9375,3.02208 8.9375,6.75z" fill="#000000" stroke="#ffffff" stroke-width="1.5" stroke-linecap="butt"/><path d="M235.5625,177.54696c0,-1.13909 0.67157,-2.0625 1.5,-2.0625c0.82843,0 1.5,0.92341 1.5,2.0625c0,1.13909 -0.67157,2.0625 -1.5,2.0625c-0.82843,0 -1.5,-0.92341 -1.5,-2.0625z" fill="#ffffff" stroke="#ffffff" stroke-width="1.5" stroke-linecap="butt"/><path d="M244.3125,178.17196c0,1.13909 -0.61561,2.0625 -1.375,2.0625c-0.75939,0 -1.375,-0.92341 -1.375,-2.0625c0,-1.13909 0.61561,-2.0625 1.375,-2.0625c0.75939,0 1.375,0.92341 1.375,2.0625z" fill="#ffffff" stroke="#ffffff" stroke-width="1.5" stroke-linecap="butt"/><path d="M240.83747,177.39358l-1.09462,-1.77876l3.79469,-2.3352l1.09462,1.77876z" fill="#000000" stroke="none" stroke-width="0" stroke-linecap="butt"/><path d="M235.64184,175.14594l1.21084,-1.70179l3.63047,2.58312l-1.21084,1.70179z" fill="#000000" stroke="none" stroke-width="0" stroke-linecap="butt"/><path d="M227.625,180c0,-6.83453 5.54047,-12.375 12.375,-12.375c6.83453,0 12.375,5.54047 12.375,12.375c0,6.83453 -5.54047,12.375 -12.375,12.375c-6.83453,0 -12.375,-5.54047 -12.375,-12.375z" fill="none" stroke="#ffffff" stroke-width="1" stroke-linecap="butt"/><path d="M224.875,180c0,-8.35331 6.77169,-15.125 15.125,-15.125c8.35331,0 15.125,6.77169 15.125,15.125c0,8.35331 -6.77169,15.125 -15.125,15.125c-8.35331,0 -15.125,-6.77169 -15.125,-15.125z" fill="none" stroke="#000000" stroke-width="1" stroke-linecap="butt"/><path d="M239.81251,157.81251v4.375" fill="none" stroke="#000000" stroke-width="1" stroke-linecap="round"/><path d="M258.3125,180h4.625" fill="none" stroke="#000000" stroke-width="1" stroke-linecap="round"/><path d="M224.65206,195.34794l2.88338,-2.88338" fill="none" stroke="#ffffff" stroke-width="1" stroke-linecap="round"/><path d="M227.97294,167.97294l-4.19588,-4.19588" fill="none" stroke="#ffffff" stroke-width="1" stroke-linecap="round"/><path d="M255.22294,195.22294l-3.07088,-3.07088" fill="none" stroke="#ffffff" stroke-width="1" stroke-linecap="round"/><path d="M240,197.5625v4.25" fill="none" stroke="#000000" stroke-width="1" stroke-linecap="round"/><path d="M252.83956,167.16044l2.50838,-2.50838" fill="none" stroke="#ffffff" stroke-width="1" stroke-linecap="round"/><path d="M217.0625,180h4.875" fill="none" stroke="#000000" stroke-width="1" stroke-linecap="round"/></g></g></svg>