<svg version="1.1" xmlns="http://www.w3.org/2000/svg" xmlns:xlink="http://www.w3.org/1999/xlink" width="661.0931" height="661.0931" viewBox="0,0,661.0931,661.0931"><g transform="translate(90.54655,150.54655)"><g data-paper-data="{&quot;isPaintingLayer&quot;:true}" fill="none" fill-rule="nonzero" stroke-width="50" stroke-linecap="butt" stroke-linejoin="miter" stroke-miterlimit="10" stroke-dasharray="" stroke-dashoffset="0" style="mix-blend-mode: normal"><path d="M-65.54655,180c0,-168.74872 136.79783,-305.54655 305.54655,-305.54655c168.74872,0 305.54655,136.79783 305.54655,305.54655c0,168.74872 -136.79783,305.54655 -305.54655,305.54655c-168.74872,0 -305.54655,-136.79783 -305.54655,-305.54655z" stroke="#cc00f3"/><path d="M-65.54655,180c0,-168.74872 136.79783,-305.54655 305.54655,-305.54655c168.74872,0 305.54655,136.79783 305.54655,305.54655c0,168.74872 -136.79783,305.54655 -305.54655,305.54655c-168.74872,0 -305.54655,-136.79783 -305.54655,-305.54655z" stroke="#cc00f3"/><path d="M-65.54655,180c0,-168.74872 136.79783,-305.54655 305.54655,-305.54655c168.74872,0 305.54655,136.79783 305.54655,305.54655c0,168.74872 -136.79783,305.54655 -305.54655,305.54655c-168.74872,0 -305.54655,-136.79783 -305.54655,-305.54655z" stroke="#cc00f3"/><path d="M-46.02703,180c0,-157.96839 128.05864,-286.02703 286.02703,-286.02703c157.96839,0 286.02703,128.05864 286.02703,286.02703c0,157.96839 -128.05864,286.02703 -286.02703,286.02703c-157.96839,0 -286.02703,-128.05864 -286.02703,-286.02703z" stroke="#cc00f3"/></g></g></svg>