<svg version="1.1" xmlns="http://www.w3.org/2000/svg" xmlns:xlink="http://www.w3.org/1999/xlink" width="31.25" height="31.25" viewBox="0,0,31.25,31.25"><g transform="translate(-224.375,-164.375)"><g data-paper-data="{&quot;isPaintingLayer&quot;:true}" fill-rule="nonzero" stroke-linecap="butt" stroke-linejoin="miter" stroke-miterlimit="10" stroke-dasharray="" stroke-dashoffset="0" style="mix-blend-mode: normal"><path d="M252.375,180c0,6.83453 -5.54047,12.375 -12.375,12.375c-6.83453,0 -12.375,-5.54047 -12.375,-12.375c0,-6.83453 5.54047,-12.375 12.375,-12.375c6.83453,0 12.375,5.54047 12.375,12.375z" fill="none" stroke="#ff0000" stroke-width="1"/><path d="M255.125,180c0,8.35331 -6.77169,15.125 -15.125,15.125c-8.35331,0 -15.125,-6.77169 -15.125,-15.125c0,-8.35331 6.77169,-15.125 15.125,-15.125c8.35331,0 15.125,6.77169 15.125,15.125z" fill="none" stroke="#ff0000" stroke-width="1"/><g fill="#ff0000" stroke="none" stroke-width="0"><path d="M240,191.33419l-8.87426,-8.47923l8.87426,3.76855l8.87426,-3.76855z"/><path d="M240,185.3062l-8.03638,-8.98157l8.03638,3.99181l8.03638,-3.99181z"/><path d="M240.13965,178.77588l-7.05885,-9.73506l7.05885,4.3267l7.05885,-4.3267z"/></g></g></g></svg>