<svg version="1.1" xmlns="http://www.w3.org/2000/svg" xmlns:xlink="http://www.w3.org/1999/xlink" width="14.46006" height="23.02739" viewBox="0,0,14.46006,23.02739"><g transform="translate(-232.76997,-168.4863)"><g data-paper-data="{&quot;isPaintingLayer&quot;:true}" fill="#8000ff" fill-rule="nonzero" stroke="none" stroke-width="0" stroke-linecap="butt" stroke-linejoin="miter" stroke-miterlimit="10" stroke-dasharray="" stroke-dashoffset="0" style="mix-blend-mode: normal"><g><g><g><path d="M242.81003,180c0.04612,9.74917 -9.0122,11.51369 -9.0122,11.51369c0,0 5.31137,-5.15486 5.31137,-11.51369c0,-6.35883 -5.31137,-11.51369 -5.31137,-11.51369c0,0 8.96544,1.62958 9.0122,11.51369z"/><path d="M245.89362,180c0.04612,9.74917 -9.01219,11.51369 -9.01219,11.51369c0,0 5.31137,-5.15486 5.31137,-11.51369c0,-6.35883 -5.31137,-11.51369 -5.31137,-11.51369c0,0 8.96543,1.62959 9.01219,11.51369z"/><path d="M244.35182,180c0.04612,9.74917 -9.0122,11.51369 -9.0122,11.51369c0,0 5.31137,-5.15486 5.31137,-11.51369c0,-6.35883 -5.31137,-11.51369 -5.31137,-11.51369c0,0 8.96543,1.62959 9.0122,11.51369z"/></g><g><path d="M241.78216,180.00001c0.04612,9.74917 -9.01219,11.51369 -9.01219,11.51369c0,0 5.31137,-5.15486 5.31137,-11.51369c0,-6.35883 -5.31137,-11.51369 -5.31137,-11.51369c0,0 8.96543,1.62958 9.01219,11.51369z"/><path d="M244.86576,180c0.04612,9.74917 -9.0122,11.51369 -9.0122,11.51369c0,0 5.31137,-5.15486 5.31137,-11.51369c0,-6.35883 -5.31137,-11.51369 -5.31137,-11.51369c0,0 8.96544,1.62958 9.0122,11.51369z"/><path d="M243.32396,180c0.04612,9.74917 -9.01219,11.51369 -9.01219,11.51369c0,0 5.31137,-5.15486 5.31137,-11.51369c0,-6.35883 -5.31137,-11.51369 -5.31137,-11.51369c0,0 8.96543,1.62958 9.01219,11.51369z"/></g></g><g><g><path d="M244.14625,180c0.04612,9.74917 -9.0122,11.51369 -9.0122,11.51369c0,0 5.31137,-5.15486 5.31137,-11.51369c0,-6.35883 -5.31137,-11.51369 -5.31137,-11.51369c0,0 8.96544,1.62958 9.0122,11.51369z"/><path d="M247.22985,180c0.04612,9.74917 -9.01219,11.51369 -9.01219,11.51369c0,0 5.31137,-5.15486 5.31137,-11.51369c0,-6.35883 -5.31137,-11.51369 -5.31137,-11.51369c0,0 8.96543,1.62959 9.01219,11.51369z"/><path d="M245.68805,180c0.04612,9.74917 -9.01219,11.51369 -9.01219,11.51369c0,0 5.31137,-5.15486 5.31137,-11.51369c0,-6.35883 -5.31137,-11.51369 -5.31137,-11.51369c0,0 8.96543,1.62959 9.01219,11.51369z"/></g><g><path d="M243.11838,180c0.04612,9.74917 -9.01219,11.51369 -9.01219,11.51369c0,0 5.31137,-5.15486 5.31137,-11.51369c0,-6.35883 -5.31137,-11.51369 -5.31137,-11.51369c0,0 8.96543,1.62958 9.01219,11.51369z"/><path d="M246.20198,180c0.04612,9.74917 -9.0122,11.51369 -9.0122,11.51369c0,0 5.31137,-5.15486 5.31137,-11.51369c0,-6.35883 -5.31137,-11.51369 -5.31137,-11.51369c0,0 8.96544,1.62959 9.0122,11.51369z"/><path d="M244.66018,180c0.04612,9.74917 -9.01219,11.51369 -9.01219,11.51369c0,0 5.31137,-5.15486 5.31137,-11.51369c0,-6.35883 -5.31137,-11.51369 -5.31137,-11.51369c0,0 8.96543,1.62959 9.01219,11.51369z"/></g></g></g></g></g></svg>