<svg version="1.1" xmlns="http://www.w3.org/2000/svg" xmlns:xlink="http://www.w3.org/1999/xlink" width="42.43249" height="42.43249" viewBox="0,0,42.43249,42.43249"><g transform="translate(-218.78376,-158.78376)"><g data-paper-data="{&quot;isPaintingLayer&quot;:true}" fill-rule="nonzero" stroke-linecap="butt" stroke-linejoin="miter" stroke-miterlimit="10" stroke-dasharray="" stroke-dashoffset="0" style="mix-blend-mode: normal"><path d="M227.625,180.1875c0,-6.83453 5.54047,-12.375 12.375,-12.375c6.83453,0 12.375,5.54047 12.375,12.375c0,6.83453 -5.54047,12.375 -12.375,12.375c-6.83453,0 -12.375,-5.54047 -12.375,-12.375z" fill="none" stroke="#ff0000" stroke-width="1"/><path d="M224.875,180.1875c0,-8.35331 6.77169,-15.125 15.125,-15.125c8.35331,0 15.125,6.77169 15.125,15.125c0,8.35331 -6.77169,15.125 -15.125,15.125c-8.35331,0 -15.125,-6.77169 -15.125,-15.125z" fill="none" stroke="#ff0000" stroke-width="1"/><g fill="#ff0000" stroke="none" stroke-width="0"><g><path d="M228.33831,184.07021l-9.55455,-4.07021l9.55455,-4.07021l-2.70451,4.07021z"/><path d="M224.109,180.93937v-1.87874h31.78201v1.87874z"/><path d="M251.66169,175.92979l9.55455,4.07021l-9.55455,4.07021l2.70451,-4.07021z"/></g><g><path d="M235.92979,168.33831l4.07021,-9.55455l4.07021,9.55455l-4.07021,-2.70451z"/><path d="M239.06063,164.109h1.87873l0,31.78201l-1.87873,0z"/><path d="M244.07021,191.66169l-4.07021,9.55455l-4.07021,-9.55455l4.07021,2.70451z"/></g><g><path d="M228.87587,174.63201l-3.87801,-9.63416l9.63416,3.87801l-4.79045,0.9657z"/><path d="M228.09913,169.4276l1.32846,-1.32846l22.47327,22.47327l-1.32846,1.32846z"/><path d="M251.12413,185.36799l3.87801,9.63416l-9.63416,-3.87801l4.79045,-0.9657z"/></g><g><path d="M245.36799,168.87587l9.63416,-3.87801l-3.87801,9.63416l-0.9657,-4.79045z"/><path d="M250.5724,168.09913l1.32846,1.32846l-22.47327,22.47327l-1.32846,-1.32846z"/><path d="M234.63201,191.12413l-9.63416,3.87801l3.87801,-9.63416l0.9657,4.79045z"/></g></g></g></g></svg>