<svg version="1.1" xmlns="http://www.w3.org/2000/svg" xmlns:xlink="http://www.w3.org/1999/xlink" width="244.21495" height="218" viewBox="0,0,244.21495,218"><g transform="translate(-161,-71.75)"><g data-paper-data="{&quot;isPaintingLayer&quot;:true}" fill-rule="nonzero" stroke-linejoin="miter" stroke-miterlimit="10" stroke-dasharray="" stroke-dashoffset="0" style="mix-blend-mode: normal"><g fill="#ce0000" stroke="none" stroke-width="0" stroke-linecap="butt"><path d="M161.5,257v-154l239,30.31856v92.84385z"/><path d="M161,287v-214h74v214z"/></g><path d="M356.29861,180c0,1.58782 -0.02176,2.875 -0.04861,2.875c-0.02685,0 -0.04861,-1.28718 -0.04861,-2.875c0,-1.58782 0.02176,-2.875 0.04861,-2.875c0.02685,0 0.04861,1.28718 0.04861,2.875z" fill="none" stroke="#ff0000" stroke-width="0.5" stroke-linecap="butt"/><path d="M165.02667,180c0,5.22699 -0.01194,9.46429 -0.02667,9.46429c-0.01473,0 -0.02667,-4.2373 -0.02667,-9.46429c0,-5.22699 0.01194,-9.46429 0.02667,-9.46429c0.01473,0 0.02667,4.2373 0.02667,9.46429z" fill="none" stroke="#ff0000" stroke-width="0.5" stroke-linecap="butt"/><path d="M161.75,286.25v-213.18256h9v213.18256z" fill="#ff0000" stroke="none" stroke-width="0" stroke-linecap="butt"/><path d="M192.25,280.25v-208.5h10v208.5z" fill="#ff0000" stroke="none" stroke-width="0" stroke-linecap="butt"/><path d="M228.25,289.75v-215.5h8.5v215.5z" fill="#ff0000" stroke="none" stroke-width="0" stroke-linecap="butt"/><path d="M246.25,118.75l21.5,104.56818" fill="none" stroke="#ff0000" stroke-width="7.5" stroke-linecap="round"/><path d="M288.75,148.75l17.65888,85.88636" fill="none" stroke="#ff0000" stroke-width="7.5" stroke-linecap="round"/><path d="M316.25,124.75l19.71495,95.88636" fill="none" stroke="#ff0000" stroke-width="7.5" stroke-linecap="round"/><path d="M352.67523,137.25l18.78972,91.38636" fill="none" stroke="#ff0000" stroke-width="7.5" stroke-linecap="round"/><path d="M386.38084,141.77273l15.08411,73.36364" fill="none" stroke="#ff0000" stroke-width="7.5" stroke-linecap="round"/></g></g></svg>