<svg version="1.1" xmlns="http://www.w3.org/2000/svg" xmlns:xlink="http://www.w3.org/1999/xlink" width="46.875" height="44.99999" viewBox="0,0,46.875,44.99999"><g transform="translate(-216.5625,-157.31251)"><g data-paper-data="{&quot;isPaintingLayer&quot;:true}" fill-rule="nonzero" stroke-linejoin="miter" stroke-miterlimit="10" stroke-dasharray="" stroke-dashoffset="0" style="mix-blend-mode: normal"><path d="M227.625,180c0,-6.83453 5.54047,-12.375 12.375,-12.375c6.83453,0 12.375,5.54047 12.375,12.375c0,6.83453 -5.54047,12.375 -12.375,12.375c-6.83453,0 -12.375,-5.54047 -12.375,-12.375z" fill="none" stroke="#ff5600" stroke-width="1" stroke-linecap="butt"/><path d="M224.875,180c0,-8.35331 6.77169,-15.125 15.125,-15.125c8.35331,0 15.125,6.77169 15.125,15.125c0,8.35331 -6.77169,15.125 -15.125,15.125c-8.35331,0 -15.125,-6.77169 -15.125,-15.125z" fill="none" stroke="#000000" stroke-width="1" stroke-linecap="butt"/><path d="M239.81251,157.81251v4.375" fill="none" stroke="#000000" stroke-width="1" stroke-linecap="round"/><path d="M258.3125,180h4.625" fill="none" stroke="#000000" stroke-width="1" stroke-linecap="round"/><path d="M224.65206,195.34794l2.88338,-2.88338" fill="none" stroke="#ff5600" stroke-width="1" stroke-linecap="round"/><path d="M223.77706,163.77706l4.19588,4.19588" fill="none" stroke="#ff5600" stroke-width="1" stroke-linecap="round"/><path d="M255.22294,195.22294l-3.07088,-3.07088" fill="none" stroke="#ff5600" stroke-width="1" stroke-linecap="round"/><path d="M240,197.5625v4.25" fill="none" stroke="#000000" stroke-width="1" stroke-linecap="round"/><path d="M252.83956,167.16044l2.50838,-2.50838" fill="none" stroke="#ff5600" stroke-width="1" stroke-linecap="round"/><path d="M217.0625,180h4.875" fill="none" stroke="#000000" stroke-width="1" stroke-linecap="round"/><text transform="translate(242.52471,185.30943) rotate(-180) scale(0.42085,-0.42085)" font-size="40" xml:space="preserve" fill="#000000" fill-rule="nonzero" stroke="#ff6300" stroke-width="1" stroke-linecap="butt" stroke-linejoin="miter" stroke-miterlimit="10" stroke-dasharray="" stroke-dashoffset="0" font-family="&quot;ヒラギノ角ゴ Pro W3&quot;, &quot;Hiragino Kaku Gothic Pro&quot;, Osaka, &quot;メイリオ&quot;, Meiryo, &quot;ＭＳ Ｐゴシック&quot;, &quot;MS PGothic&quot;" font-weight="normal" text-anchor="start" style="mix-blend-mode: normal"><tspan x="0" dy="0">!</tspan></text><g fill="none" stroke-linecap="round"><path d="M235.74438,173.43927l4.32401,-6.71534l3.92963,6.6743" stroke="#ff6300" stroke-width="2"/><path d="M235.74438,173.43927l4.32401,-6.71534l3.92963,6.6743" stroke="#000000" stroke-width="1"/></g><g fill="none" stroke-linecap="round"><path d="M247.55598,181.03813l3.53873,7.16032l-7.74498,-0.05879" stroke="#ff6300" stroke-width="2"/><path d="M247.55598,181.03813l3.53873,7.16032l-7.74498,-0.05879" stroke="#000000" stroke-width="1"/></g><g data-paper-data="{&quot;index&quot;:null}" fill="none" stroke-linecap="round"><path d="M236.65027,188.13966l-7.74498,0.05879l3.53874,-7.16032" stroke="#ff6300" stroke-width="2"/><path d="M236.65027,188.13966l-7.74498,0.05879l3.53874,-7.16032" stroke="#000000" stroke-width="1"/></g></g></g></svg>