<svg version="1.1" xmlns="http://www.w3.org/2000/svg" xmlns:xlink="http://www.w3.org/1999/xlink" width="239.5" height="214" viewBox="0,0,239.5,214"><g transform="translate(-161.5,-73)"><g data-paper-data="{&quot;isPaintingLayer&quot;:true}" fill-rule="nonzero" stroke-linecap="butt" stroke-linejoin="miter" stroke-miterlimit="10" stroke-dasharray="" stroke-dashoffset="0" style="mix-blend-mode: normal"><path d="M356.29861,180c0,1.58782 -0.02176,2.875 -0.04861,2.875c-0.02685,0 -0.04861,-1.28718 -0.04861,-2.875c0,-1.58782 0.02176,-2.875 0.04861,-2.875c0.02685,0 0.04861,1.28718 0.04861,2.875z" fill="none" stroke="#ff0000" stroke-width="0.5"/><g fill="#ff0000"><path d="M165.02667,180c0,5.22699 -0.01194,9.46429 -0.02667,9.46429c-0.01473,0 -0.02667,-4.2373 -0.02667,-9.46429c0,-5.22699 0.01194,-9.46429 0.02667,-9.46429c0.01473,0 0.02667,4.2373 0.02667,9.46429z" stroke="#ff0000" stroke-width="0.5"/><path d="M162,257v-154l239,30.31856v92.84385z" stroke="none" stroke-width="0"/><path d="M161.5,287v-214h74v214z" stroke="none" stroke-width="0"/></g></g></g></svg>